<svg width="355" height="146" viewBox="0 0 355 146" fill="none" xmlns="http://www.w3.org/2000/svg">
<path d="M25.5278 44.2249C56.145 25.8546 58.98 7.08732 56.5703 0C70.1779 18.7105 61.333 42.1837 31.0559 57.8326C0.778883 73.4814 3.69886 101.774 8.94348 113.964C1.28917 103.333 -12.7437 67.1878 25.5278 44.2249Z" fill="white"/>
<path d="M34.0326 62.5102C62.9489 45.8408 67.91 26.3648 66.776 18.7105C76.1313 45.5006 59.9722 66.5925 39.5607 82.9217C19.1492 99.2509 23.9686 123.745 28.9297 133.95C13.6211 123.745 -2.11275 83.3469 34.0326 62.5102Z" fill="white"/>
<path d="M31.0559 131.824C22.2109 97.8051 45.5141 79.6615 58.2712 74.8421C55.7198 84.6226 57.4208 89.8956 60.8227 97.3798C64.2246 104.864 61.3897 114.106 59.547 117.791C66.691 112.348 66.209 103.333 65.0751 99.506C74.8556 107.586 68.9022 122.469 57.4208 126.296C48.2356 129.358 39.419 140.329 36.1588 145.432C32.7569 140.754 37.4345 129.698 42.9626 121.618C48.4907 113.539 50.1917 102.483 41.6869 98.2303C34.8831 94.8284 31.7647 119.209 31.0559 131.824Z" fill="white"/>
<path d="M77.9763 74.5455L89.8087 93.8878H90.1951L102.027 74.5455H110.672L95.2661 99.2727L110.769 124H102.076L90.1951 104.923H89.8087L77.928 124H69.2349L85.0033 99.2727L69.3314 74.5455H77.9763ZM121.455 74.5455V124H113.994V74.5455H121.455ZM171.201 99.2727C171.201 104.553 170.235 109.093 168.303 112.892C166.371 116.675 163.723 119.589 160.358 121.634C157.01 123.662 153.202 124.676 148.936 124.676C144.654 124.676 140.831 123.662 137.466 121.634C134.118 119.589 131.478 116.667 129.546 112.868C127.614 109.069 126.648 104.537 126.648 99.2727C126.648 93.9924 127.614 89.4607 129.546 85.6776C131.478 81.8783 134.118 78.9645 137.466 76.9361C140.831 74.8916 144.654 73.8693 148.936 73.8693C153.202 73.8693 157.01 74.8916 160.358 76.9361C163.723 78.9645 166.371 81.8783 168.303 85.6776C170.235 89.4607 171.201 93.9924 171.201 99.2727ZM163.811 99.2727C163.811 95.2481 163.159 91.8594 161.855 89.1065C160.568 86.3376 158.797 84.2448 156.543 82.8281C154.305 81.3954 151.77 80.679 148.936 80.679C146.087 80.679 143.543 81.3954 141.306 82.8281C139.068 84.2448 137.297 86.3376 135.993 89.1065C134.705 91.8594 134.061 95.2481 134.061 99.2727C134.061 103.297 134.705 106.694 135.993 109.463C137.297 112.216 139.068 114.309 141.306 115.741C143.543 117.158 146.087 117.866 148.936 117.866C151.77 117.866 154.305 117.158 156.543 115.741C158.797 114.309 160.568 112.216 161.855 109.463C163.159 106.694 163.811 103.297 163.811 99.2727ZM216.34 74.5455V124H209.482L184.344 87.7301H183.885V124H176.423V74.5455H183.33L208.492 110.864H208.95V74.5455H216.34ZM223.144 124V74.5455H230.606V96.0369H255.261V74.5455H262.747V124H255.261V102.436H230.606V124H223.144ZM301.336 74.5455H308.821V107.072C308.821 110.534 308.008 113.6 306.382 116.273C304.757 118.929 302.471 121.022 299.524 122.551C296.578 124.064 293.125 124.821 289.165 124.821C285.221 124.821 281.776 124.064 278.83 122.551C275.884 121.022 273.598 118.929 271.972 116.273C270.346 113.6 269.533 110.534 269.533 107.072V74.5455H276.995V106.469C276.995 108.706 277.486 110.695 278.468 112.433C279.466 114.172 280.874 115.54 282.694 116.538C284.513 117.52 286.67 118.011 289.165 118.011C291.676 118.011 293.842 117.52 295.661 116.538C297.496 115.54 298.897 114.172 299.863 112.433C300.845 110.695 301.336 108.706 301.336 106.469V74.5455ZM315.59 124V74.5455H333.701C337.21 74.5455 340.116 75.125 342.418 76.2841C344.72 77.4271 346.442 78.9806 347.585 80.9446C348.728 82.8925 349.3 85.09 349.3 87.5369C349.3 89.5975 348.922 91.3362 348.165 92.7528C347.408 94.1534 346.394 95.2803 345.122 96.1335C343.867 96.9706 342.482 97.5824 340.969 97.9688V98.4517C342.611 98.5322 344.213 99.0634 345.774 100.045C347.352 101.011 348.656 102.388 349.686 104.175C350.717 105.962 351.232 108.135 351.232 110.695C351.232 113.222 350.636 115.492 349.445 117.504C348.27 119.5 346.451 121.086 343.987 122.261C341.524 123.42 338.377 124 334.546 124H315.59ZM323.051 117.601H333.821C337.395 117.601 339.955 116.909 341.5 115.524C343.046 114.14 343.818 112.409 343.818 110.332C343.818 108.771 343.424 107.338 342.635 106.034C341.846 104.73 340.719 103.692 339.255 102.919C337.806 102.146 336.083 101.76 334.087 101.76H323.051V117.601ZM323.051 95.9403H333.049C334.723 95.9403 336.228 95.6184 337.564 94.9744C338.916 94.3305 339.987 93.429 340.776 92.2699C341.581 91.0947 341.983 89.7102 341.983 88.1165C341.983 86.072 341.267 84.3575 339.834 82.973C338.401 81.5885 336.204 80.8963 333.242 80.8963H323.051V95.9403Z" fill="white"/>
</svg>

